<?xml version="1.0" encoding="UTF-8"?>
<svg width="32px" height="32px" viewBox="0 0 32 32" version="1.1" xmlns="http://www.w3.org/2000/svg" xmlns:xlink="http://www.w3.org/1999/xlink">
    <!-- Generator: Sketch 60.1 (88133) - https://sketch.com -->
    <title>mark</title>
    <desc>Created with Sketch.</desc>
    <g id="Page-1" stroke="none" stroke-width="1" fill="none" fill-rule="evenodd">
        <g id="mark">
            <g id="Group-16">
                <circle id="Oval-8" fill="#354341" cx="28" cy="4" r="4"></circle>
                <path d="M21.6925,17.7464 C21.6925,17.7464 19.3728333,20.0370667 14.7335,24.6184 L21.4525,31.2534 C24.6675,30.3654 27.7025,28.6764 30.2315,26.1784 C32.5895,23.8504 32.5895,20.0754 30.2315,17.7464 C27.8735,15.4174 24.0505,15.4174 21.6925,17.7464 Z" id="Fill-1" fill="#A9DDD8"></path>
                <circle id="Oval-8" fill="#354341" cx="4" cy="4" r="4"></circle>
                <path d="M17.2662,24.6183 L10.3072,17.7463 L10.3072,17.7463 C7.9492,15.4183 4.1262,15.4183 1.7682,17.7463 C-0.5898,20.0753 -0.5898,23.8503 1.7682,26.1783 C4.2972,28.6763 7.3332,30.3653 10.5472,31.2533 L17.2662,24.6183 Z" id="Fill-4" fill="#54BBB2"></path>
                <path d="M8.63295,30.7327905 C8.67201413,30.7467181 8.71107827,30.7615742 8.7501424,30.7755018 C9.10772946,30.90085 9.46832145,31.0159846 9.83091673,31.1218342 C9.93508775,31.1524748 10.0392588,31.1831155 10.1444314,31.2118992 C10.4899988,31.3075352 10.838571,31.3929577 11.1881449,31.4718806 C11.3163554,31.4997357 11.4435643,31.5285194 11.5717747,31.5545175 C11.8983108,31.6213699 12.2258485,31.6789372 12.5543879,31.7309335 C12.7126477,31.7560032 12.8699059,31.7801443 13.0291674,31.8014999 C13.3266558,31.8423541 13.6251458,31.8748518 13.9246375,31.902707 C14.1179549,31.9203486 14.3112722,31.9370617 14.5045896,31.9500607 C14.7690237,31.9686308 15.0344595,31.9797729 15.2988936,31.9881294 C15.5282702,31.994629 15.7586484,32.0002 15.988025,32.0002 C16.2174016,32.0002 16.4467781,31.994629 16.6761547,31.9881294 C16.9415905,31.9797729 17.2070263,31.9686308 17.4714604,31.9500607 C17.6647778,31.9370617 17.8580951,31.9203486 18.0514125,31.902707 C18.3499026,31.8748518 18.6493942,31.8423541 18.9468826,31.8014999 C19.1051424,31.7801443 19.2634023,31.7560032 19.4216621,31.7309335 C19.7502015,31.6789372 20.0777392,31.6213699 20.4032736,31.5545175 C20.5314841,31.5285194 20.6596946,31.4997357 20.7869034,31.4718806 C21.137479,31.3929577 21.4860512,31.3075352 21.8316186,31.2118992 C21.9367912,31.1831155 22.0409622,31.1524748 22.1451333,31.1218342 C22.5077286,31.0159846 22.8683205,30.90085 23.224906,30.7755018 C23.2649717,30.7615742 23.3040359,30.7467181 23.3431,30.7327905 L15.988025,24.0002 L8.63295,30.7327905 Z" id="Fill-7" fill="#2AAB9F"></path>
            </g>
        </g>
    </g>
</svg>